<?xml version="1.0" encoding="utf-8"?>
<!-- Generator: Adobe Illustrator 25.0.1, SVG Export Plug-In . SVG Version: 6.00 Build 0)  -->
<svg version="1.1" id="Layer_1" xmlns="http://www.w3.org/2000/svg" xmlns:xlink="http://www.w3.org/1999/xlink" x="0px" y="0px"
	 viewBox="0 0 120 120" style="enable-background:new 0 0 120 120;" xml:space="preserve">
<style type="text/css">
	.st0{fill:#70CCD6;stroke:#374B60;stroke-width:3;stroke-miterlimit:10;}
	.st1{fill:#374B60;}
	.st2{fill:none;stroke:#70CCD6;stroke-width:2;stroke-miterlimit:10;}
	.st3{fill:#374B60;stroke:#70CCD6;stroke-width:2;stroke-miterlimit:10;}
	.st4{fill:none;stroke:#374B60;stroke-width:3;stroke-miterlimit:10;}
	.st5{fill:none;}
	.st6{fill:none;stroke:#374B60;stroke-width:2;stroke-miterlimit:10;}
	.st7{fill:#70CCD6;}
</style>
<g>
	<ellipse class="st0" cx="60.18" cy="60.01" rx="58.41" ry="58.48"/>
	<g>
		<g>
			<path class="st1" d="M13.53,35.56c0.77,0.29,1.59,0.46,2.46,0.46c2.85,0,5.31-1.74,6.51-4.28
				C18.95,32.55,15.99,33.89,13.53,35.56z"/>
		</g>
		<g>
			<path class="st2" d="M13.53,35.56c0.77,0.29,1.59,0.46,2.46,0.46c2.85,0,5.31-1.74,6.51-4.28
				C18.95,32.55,15.99,33.89,13.53,35.56z"/>
		</g>
	</g>
	<path class="st3" d="M106.91,36.61c0.44,0,0.87-0.05,1.29-0.12c-2.27-1.87-5.03-3.44-8.4-4.51
		C101.01,34.71,103.74,36.61,106.91,36.61z"/>
	<path class="st3" d="M107.02,35.92c-0.02,0.23-0.04,0.46-0.04,0.7c0,4.08,3.13,7.43,7.12,7.76
		C112.48,41.34,110.21,38.35,107.02,35.92z"/>
	<path class="st4" d="M1.68,59.03"/>
	<ellipse class="st3" cx="35.84" cy="60.01" rx="12.17" ry="12.18"/>
	<ellipse class="st3" cx="60.18" cy="60.01" rx="12.17" ry="12.18"/>
	<ellipse class="st3" cx="84.52" cy="60.01" rx="12.17" ry="12.18"/>
	<path class="st3" d="M2.29,67.95c2.23,2.6,5.53,4.24,9.22,4.24c6.72,0,12.17-5.46,12.17-12.18S18.22,47.82,11.5,47.82
		c-3.53,0-6.71,1.52-8.93,3.93c-1.25,4.65-1.26,8.24-1.26,8.24S1.57,63.55,2.29,67.95z"/>
	<ellipse class="st3" cx="48.34" cy="47.82" rx="12.17" ry="12.18"/>
	<ellipse class="st3" cx="24.01" cy="47.82" rx="12.17" ry="12.18"/>
	<ellipse class="st3" cx="72.68" cy="47.82" rx="12.17" ry="12.18"/>
	<path class="st3" d="M116.55,50.57c-2.1-1.71-4.77-2.74-7.69-2.74c-6.72,0-12.17,5.46-12.17,12.18s5.45,12.18,12.17,12.18
		c3.42,0,6.51-1.42,8.72-3.69c0.48-4.49,0.57-8.51,0.57-8.51S118.14,55.79,116.55,50.57z"/>
	<ellipse class="st3" cx="97.02" cy="47.82" rx="12.17" ry="12.18"/>
	<ellipse class="st3" cx="60.18" cy="36.61" rx="12.17" ry="12.18"/>
	<path class="st3" d="M109.19,47.82c0,5.61,3.79,10.32,8.94,11.74c-0.08-2.06-0.77-11.4-6.6-18.9
		C110.06,42.67,109.19,45.14,109.19,47.82z"/>
	<path class="st3" d="M24.82,31.47c-0.73,1.56-1.15,3.3-1.15,5.14c0,6.73,5.45,12.18,12.17,12.18s12.17-5.46,12.17-12.18
		c0-3.31-1.32-6.31-3.47-8.51c-3.7,1.81-8.29,2.94-14.02,2.94C28.48,31.05,26.59,31.2,24.82,31.47z"/>
	<path class="st3" d="M97.68,31.8c-0.64,1.48-0.99,3.1-0.99,4.81c0,6.73,5.45,12.18,12.17,12.18c2.34,0,4.52-0.67,6.37-1.82
		C112.56,40.81,107.45,34.27,97.68,31.8z"/>
	<path class="st3" d="M75.54,28.41c-1.98,2.17-3.19,5.04-3.19,8.2c0,6.73,5.45,12.18,12.17,12.18c6.72,0,12.17-5.46,12.17-12.18
		c0-1.77-0.39-3.46-1.07-4.98c-2.04-0.37-4.25-0.59-6.68-0.59C83.53,31.05,79.13,30.04,75.54,28.41z"/>
	<path class="st3" d="M63.25,15.86c-2.17,2.2-3.52,5.23-3.52,8.57c0,6.73,5.45,12.18,12.17,12.18c4.62,0,8.64-2.58,10.7-6.38
		C71.99,28.42,66.29,22.12,63.25,15.86z"/>
	<path class="st3" d="M11.84,47.82c0-3.05-1.13-5.84-2.98-7.98c-6.71,7.68-7.44,17.91-7.52,20.03
		C7.26,59.07,11.84,53.99,11.84,47.82z"/>
	<path class="st4" d="M59.73,1.5c0,0,0,29.24-29.21,29.24S1.32,59.99,1.32,59.99s0.78,10.96,3.46,18.2"/>
	<path class="st5" d="M59.74,1.94c0,0.05,0,0.09,0.01,0.15C59.74,2.03,59.74,1.98,59.74,1.94z"/>
	<path class="st5" d="M59.81,3c0,0.03,0,0.05,0.01,0.08C59.81,3.05,59.81,3.03,59.81,3z"/>
	<path class="st5" d="M59.73,1.61c0,0.04,0,0.09,0,0.15C59.73,1.7,59.73,1.65,59.73,1.61z"/>
	<path class="st5" d="M59.73,1.5c0,0,0,0.02,0,0.05C59.73,1.54,59.73,1.5,59.73,1.5z"/>
	<path class="st5" d="M66.5,21.04c0,0,0.01,0.01,0.01,0.01C66.51,21.04,66.51,21.04,66.5,21.04z"/>
	<path class="st3" d="M59.81,3.08c0.27,3.34,1.47,11.39,6.69,17.96C61.29,14.47,60.09,6.42,59.81,3.08z"/>
	<path class="st3" d="M59.75,2.08c0.01,0.24,0.03,0.55,0.06,0.92C59.78,2.63,59.76,2.32,59.75,2.08z"/>
	<path class="st3" d="M59.73,1.56c0,0.02,0,0.03,0,0.06C59.73,1.59,59.73,1.57,59.73,1.56z"/>
	<path class="st3" d="M36.85,30.22c2.06,3.81,6.08,6.4,10.71,6.4c6.72,0,12.17-5.46,12.17-12.18c0-3.34-1.35-6.37-3.52-8.57
		C53.16,22.11,47.46,28.41,36.85,30.22z"/>
	<path class="st3" d="M66.5,21.04c-5.22-6.57-6.42-14.62-6.69-17.96c0-0.03,0-0.05-0.01-0.08c-0.03-0.37-0.05-0.68-0.06-0.92
		c0-0.05,0-0.1-0.01-0.15c0-0.07,0-0.13-0.01-0.18c0-0.06,0-0.11,0-0.15c0-0.03,0-0.04,0-0.06c0-0.03,0-0.05,0-0.05
		s-0.01,11.75-7.46,20.36c2.06,1.6,4.64,2.57,7.46,2.57c2.81,0,5.4-0.96,7.46-2.57c-0.23-0.27-0.46-0.54-0.67-0.81
		C66.51,21.04,66.51,21.04,66.5,21.04z"/>
	<path class="st3" d="M59.73,1.76c0,0.05,0,0.11,0.01,0.18C59.74,1.87,59.74,1.81,59.73,1.76z"/>
	<path class="st3" d="M66.51,21.05c0.22,0.27,0.44,0.54,0.67,0.81l0,0C66.95,21.59,66.73,21.32,66.51,21.05z"/>
	<path class="st3" d="M4.44,46.52c1.99,1.43,4.43,2.28,7.07,2.28c6.72,0,12.17-5.46,12.17-12.18c0-1.79-0.39-3.48-1.09-5.01
		C12.54,33.85,7.23,40.32,4.44,46.52z"/>
	<path class="st3" d="M16.05,33.92c2.09,1.68,4.73,2.69,7.62,2.69c4.48,0,8.39-2.43,10.5-6.05c-1.17,0.11-2.37,0.18-3.65,0.18
		C24.56,30.75,19.83,31.98,16.05,33.92z"/>
	<path class="st3" d="M86.24,30.66c2.12,3.56,6,5.95,10.44,5.95c2.72,0,5.23-0.91,7.26-2.42c-3.86-2.1-8.76-3.45-15.01-3.45
		C88.01,30.75,87.11,30.72,86.24,30.66z"/>
	<g>
		<path class="st4" d="M59.73,1.5c0,0,0,29.24-29.21,29.24S1.32,59.99,1.32,59.99s0.78,10.96,3.46,18.2"/>
		<path class="st4" d="M59.73,1.5c0,0,0,29.24,29.21,29.24s29.21,29.24,29.21,29.24s-0.25,12.08-2.4,17.72"/>
	</g>
	<line class="st6" x1="78.55" y1="93.29" x2="78.55" y2="98.16"/>
	<ellipse class="st0" cx="78.55" cy="82.57" rx="9.74" ry="9.75"/>
	<rect x="65.74" y="71.25" class="st7" width="25.63" height="10.04"/>
	<line class="st6" x1="72.71" y1="90.37" x2="72.71" y2="97.19"/>
	<line class="st6" x1="84.39" y1="91.34" x2="84.39" y2="96.21"/>
	<line class="st6" x1="40.91" y1="93.26" x2="40.91" y2="98.13"/>
	<ellipse class="st0" cx="40.91" cy="82.54" rx="9.74" ry="9.75"/>
	<rect x="28.09" y="71.22" class="st7" width="25.63" height="10.04"/>
	<line class="st6" x1="35.07" y1="91.31" x2="35.07" y2="96.18"/>
	<line class="st6" x1="46.75" y1="91.31" x2="46.75" y2="96.18"/>
</g>
</svg>
